<svg xmlns="http://www.w3.org/2000/svg" viewBox="0 0 526.7 301"><defs><style>.cls-1{fill:#ef7816;}</style></defs><g id="Layer_2" data-name="Layer 2"><g id="Layer_1-2" data-name="Layer 1"><path class="cls-1" d="M64.07,111.53a98.17,98.17,0,0,1,45.84-43.86q3.42-1.58,6.93-2.87a95.91,95.91,0,0,1,21.25-5.18V0H116.84V35.4A125.18,125.18,0,0,0,89.12,46.88l-23.94-24L20.32,67.78,43.51,91a125.43,125.43,0,0,0-13.09,29.55H0V184H28.46a124.39,124.39,0,0,0,12.85,33.29L22.93,235.64l44.85,44.85,17.57-17.56a125.15,125.15,0,0,0,35.18,14.66v23.22h17.56v-48.4a97.07,97.07,0,0,1-17.56-3.92,95.66,95.66,0,0,1-14.64-6.11,98.12,98.12,0,0,1-43.78-45.92A94.39,94.39,0,0,1,57.41,184,97.94,97.94,0,0,1,60,120.53,93.18,93.18,0,0,1,64.07,111.53Z"/><path d="M216.41,108.54v98.28H189.09V152.59l-18.54,54.23H147.69L129,152.17v54.65H101.68V108.54h33l24.68,63.84,24.11-63.84Z"/><path d="M233.62,204a13.06,13.06,0,0,1-4.39-10.11,13.25,13.25,0,0,1,4.39-10.17q4.4-4.05,11.64-4.05t11.5,4.05a13.8,13.8,0,0,1,0,20.21q-4.38,4-11.5,4T233.62,204Z"/><path d="M336.15,190.78H301.3l-5.3,16H267.29l35.82-98.28h31.51l35.68,98.28H341.45Zm-6.83-20.9-10.59-31.79-10.46,31.79Z"/><path d="M417.7,131.82a27,27,0,0,1,14.08-3.9v29.13h-7.67q-8.92,0-13.24,3.49c-2.89,2.32-4.32,6.36-4.32,12.12v34.16H379.22V128.61h27.33v13.8A35.43,35.43,0,0,1,417.7,131.82Z"/><path d="M443.69,117.39a12.9,12.9,0,0,1-4.39-10,13.28,13.28,0,0,1,4.39-10.17q4.4-4.05,11.64-4t11.5,4a13.24,13.24,0,0,1,4.39,10.17,12.87,12.87,0,0,1-4.39,10q-4.38,4-11.5,4T443.69,117.39Zm25.16,11.22v78.21H441.53V128.61Z"/><path d="M526.7,151.34H514.44v55.48H487V151.34h-8.51V128.61H487v-.69q0-15.06,8.85-23.07t25.44-8c2.23,0,4,0,5.16.14v23.28a26.92,26.92,0,0,0-3.07-.14c-3,0-5.16.68-6.55,2s-2.19,3.51-2.37,6.48H526.7Z"/><rect class="cls-1" x="153.7" width="34" height="58"/><rect class="cls-1" x="153.7" y="257" width="34" height="44"/></g></g></svg>