<svg xmlns="http://www.w3.org/2000/svg" viewBox="0 0 453.88 363.88"><defs><style>.cls-1{fill:#edb88c;}.cls-2{fill:#dd9c62;}</style></defs><g id="Layer_2" data-name="Layer 2"><g id="Layer_1-2" data-name="Layer 1"><path class="cls-1" d="M245.5,72.19,223.74,94a129.2,129.2,0,0,0-39.86-15.35V48.12A159.2,159.2,0,0,1,245.5,72.19Z"/><path class="cls-1" d="M46.36,272.75,24.64,294.47A159.06,159.06,0,0,1,.17,233H30.71A129.46,129.46,0,0,0,46.36,272.75Z"/><path class="cls-1" d="M130.88,48.29V78.83a129.42,129.42,0,0,0-49.37,22L60.1,79.45A159.2,159.2,0,0,1,130.88,48.29Z"/><path class="cls-1" d="M315.59,179H285.05a129.42,129.42,0,0,0-22-49.37l21.41-21.41A159.2,159.2,0,0,1,315.59,179Z"/><path class="cls-1" d="M45.84,140.14A129.2,129.2,0,0,0,30.49,180H0a159.2,159.2,0,0,1,24.07-61.62Z"/><path class="cls-1" d="M246.35,339.24a159.06,159.06,0,0,1-61.47,24.47V333.17a129.46,129.46,0,0,0,39.75-15.65Z"/><path class="cls-1" d="M315.76,232a159.26,159.26,0,0,1-30.71,71l-21.44-21.43A129.54,129.54,0,0,0,285.27,232Z"/><path class="cls-1" d="M131.88,333.39v30.49a159.26,159.26,0,0,1-71-30.71l21.43-21.44A129.54,129.54,0,0,0,131.88,333.39Z"/><circle class="cls-2" cx="292.88" cy="161" r="161"/></g></g></svg>