<svg xmlns="http://www.w3.org/2000/svg" viewBox="0 0 432 322.17"><defs><style>.cls-1{fill:#edb88c;}.cls-2{fill:#dd9c62;}</style></defs><g id="Layer_2" data-name="Layer 2"><g id="Layer_1-2" data-name="Layer 1"><rect class="cls-1" y="84.12" width="320.85" height="237.93"/><rect class="cls-2" x="111.15" width="320.85" height="237.93"/><rect class="cls-2" x="66.34" y="261.59" width="21.53" height="5.74" transform="translate(-141.96 97.44) rotate(-36.42)"/><rect class="cls-2" x="86.09" y="247.02" width="21.53" height="5.74" transform="translate(-129.45 106.32) rotate(-36.42)"/><rect class="cls-2" x="26.85" y="290.73" width="21.53" height="5.74" transform="translate(-166.97 79.69) rotate(-36.42)"/><rect class="cls-2" x="7.03" y="305.75" width="21.53" height="5.74" transform="translate(-179.77 70.85) rotate(-36.42)"/><rect class="cls-2" x="46.6" y="276.16" width="21.53" height="5.74" transform="translate(-154.47 88.57) rotate(-36.42)"/><rect class="cls-2" x="66.67" y="22.5" width="21.53" height="5.74" transform="translate(0.06 50.93) rotate(-36.42)"/><rect class="cls-2" x="86.41" y="7.93" width="21.53" height="5.74" transform="translate(12.57 59.81) rotate(-36.42)"/><rect class="cls-2" x="27.18" y="51.64" width="21.53" height="5.74" transform="translate(-24.95 33.18) rotate(-36.42)"/><rect class="cls-2" x="7.35" y="66.66" width="21.53" height="5.74" transform="translate(-37.74 24.34) rotate(-36.42)"/><rect class="cls-2" x="46.93" y="37.07" width="21.53" height="5.74" transform="translate(-12.44 42.05) rotate(-36.42)"/><rect class="cls-2" x="391.12" y="266.44" width="21.53" height="5.74" transform="translate(-81.39 291.23) rotate(-36.42)"/><rect class="cls-2" x="410.86" y="251.87" width="21.53" height="5.74" transform="translate(-68.88 300.11) rotate(-36.42)"/><rect class="cls-2" x="351.63" y="295.58" width="21.53" height="5.74" transform="translate(-106.41 273.47) rotate(-36.42)"/><rect class="cls-2" x="331.8" y="310.6" width="21.53" height="5.74" transform="translate(-119.2 264.64) rotate(-36.42)"/><rect class="cls-2" x="371.38" y="281.01" width="21.53" height="5.74" transform="translate(-93.9 282.35) rotate(-36.42)"/></g></g></svg>